<mxfile host="app.diagrams.net" modified="2023-04-09T08:51:41.775Z" agent="Mozilla/5.0 (Windows NT 10.0; Win64; x64) AppleWebKit/537.36 (KHTML, like Gecko) Chrome/110.0.0.0 Whale/3.19.166.16 Safari/537.36" etag="DCzIbmswMBCZOFITz98x" version="21.1.5" type="github">
  <diagram name="페이지-1" id="wWM9gtQzFqx25JjFePYi">
    <mxGraphModel dx="2780" dy="1203" grid="1" gridSize="10" guides="1" tooltips="1" connect="1" arrows="1" fold="1" page="1" pageScale="1" pageWidth="827" pageHeight="1169" math="0" shadow="0">
      <root>
        <mxCell id="0" />
        <mxCell id="1" parent="0" />
        <mxCell id="1IU3ckHuEVs75nmSolgR-3" value="User" style="shape=umlActor;verticalLabelPosition=bottom;verticalAlign=top;html=1;outlineConnect=0;strokeWidth=4;fontSize=26;" vertex="1" parent="1">
          <mxGeometry x="-100" y="340" width="50" height="120" as="geometry" />
        </mxCell>
        <mxCell id="1IU3ckHuEVs75nmSolgR-9" value="" style="rounded=0;whiteSpace=wrap;html=1;" vertex="1" parent="1">
          <mxGeometry x="40" y="149" width="990" height="781" as="geometry" />
        </mxCell>
        <mxCell id="1IU3ckHuEVs75nmSolgR-2" value="&lt;h1&gt;우리 동네 맛집은 어디?&lt;/h1&gt;" style="text;html=1;strokeColor=none;fillColor=none;spacing=5;spacingTop=-20;whiteSpace=wrap;overflow=hidden;rounded=0;" vertex="1" parent="1">
          <mxGeometry x="410" y="189" width="280" height="40" as="geometry" />
        </mxCell>
        <mxCell id="1IU3ckHuEVs75nmSolgR-4" value="Administrator" style="shape=umlActor;verticalLabelPosition=bottom;verticalAlign=top;html=1;outlineConnect=0;strokeWidth=4;fontSize=26;" vertex="1" parent="1">
          <mxGeometry x="-90" y="740" width="50" height="120" as="geometry" />
        </mxCell>
        <mxCell id="1IU3ckHuEVs75nmSolgR-7" value="System" style="shape=umlActor;verticalLabelPosition=bottom;verticalAlign=top;html=1;outlineConnect=0;strokeWidth=4;fontSize=26;" vertex="1" parent="1">
          <mxGeometry x="1123" y="471" width="50" height="120" as="geometry" />
        </mxCell>
        <mxCell id="1IU3ckHuEVs75nmSolgR-11" value="&lt;font style=&quot;font-size: 22px;&quot;&gt;회원가입&lt;/font&gt;" style="ellipse;whiteSpace=wrap;html=1;" vertex="1" parent="1">
          <mxGeometry x="80" y="290" width="130" height="70" as="geometry" />
        </mxCell>
        <mxCell id="1IU3ckHuEVs75nmSolgR-12" value="&lt;font style=&quot;font-size: 22px;&quot;&gt;메뉴&lt;/font&gt;" style="ellipse;whiteSpace=wrap;html=1;" vertex="1" parent="1">
          <mxGeometry x="80" y="455" width="130" height="70" as="geometry" />
        </mxCell>
        <mxCell id="1IU3ckHuEVs75nmSolgR-13" value="&lt;font style=&quot;font-size: 22px;&quot;&gt;맛집 정보 업데이트&lt;/font&gt;" style="ellipse;whiteSpace=wrap;html=1;" vertex="1" parent="1">
          <mxGeometry x="62.5" y="790" width="210" height="70" as="geometry" />
        </mxCell>
        <mxCell id="1IU3ckHuEVs75nmSolgR-14" value="&lt;font style=&quot;font-size: 22px;&quot;&gt;로그인&lt;/font&gt;" style="ellipse;whiteSpace=wrap;html=1;" vertex="1" parent="1">
          <mxGeometry x="482.5" y="279" width="135" height="70" as="geometry" />
        </mxCell>
        <mxCell id="1IU3ckHuEVs75nmSolgR-15" value="&lt;font style=&quot;font-size: 22px;&quot;&gt;로그인 인증&lt;/font&gt;" style="ellipse;whiteSpace=wrap;html=1;" vertex="1" parent="1">
          <mxGeometry x="790" y="460" width="170" height="70" as="geometry" />
        </mxCell>
        <mxCell id="1IU3ckHuEVs75nmSolgR-16" value="&lt;font style=&quot;font-size: 22px;&quot;&gt;로그인 실패&lt;/font&gt;" style="ellipse;whiteSpace=wrap;html=1;" vertex="1" parent="1">
          <mxGeometry x="790" y="561" width="170" height="70" as="geometry" />
        </mxCell>
        <mxCell id="1IU3ckHuEVs75nmSolgR-18" value="&lt;font style=&quot;font-size: 22px;&quot;&gt;게시판 보기&lt;/font&gt;" style="ellipse;whiteSpace=wrap;html=1;" vertex="1" parent="1">
          <mxGeometry x="272.5" y="455" width="137.5" height="70" as="geometry" />
        </mxCell>
        <mxCell id="1IU3ckHuEVs75nmSolgR-19" value="&lt;font style=&quot;font-size: 22px;&quot;&gt;맛집 서비스 보기&lt;/font&gt;" style="ellipse;whiteSpace=wrap;html=1;" vertex="1" parent="1">
          <mxGeometry x="260" y="616" width="177.5" height="70" as="geometry" />
        </mxCell>
        <mxCell id="1IU3ckHuEVs75nmSolgR-20" value="&lt;font style=&quot;font-size: 22px;&quot;&gt;게시판 검색&lt;/font&gt;" style="ellipse;whiteSpace=wrap;html=1;" vertex="1" parent="1">
          <mxGeometry x="530" y="420" width="120" height="70" as="geometry" />
        </mxCell>
        <mxCell id="1IU3ckHuEVs75nmSolgR-21" value="&lt;font style=&quot;font-size: 22px;&quot;&gt;게시판 작성/수정/삭제&lt;/font&gt;" style="ellipse;whiteSpace=wrap;html=1;" vertex="1" parent="1">
          <mxGeometry x="470" y="506" width="240" height="70" as="geometry" />
        </mxCell>
        <mxCell id="1IU3ckHuEVs75nmSolgR-22" value="&lt;font style=&quot;font-size: 22px;&quot;&gt;사용자 위치 설정&lt;/font&gt;" style="ellipse;whiteSpace=wrap;html=1;" vertex="1" parent="1">
          <mxGeometry x="482.5" y="616" width="177.5" height="70" as="geometry" />
        </mxCell>
        <mxCell id="1IU3ckHuEVs75nmSolgR-23" value="&lt;font style=&quot;font-size: 22px;&quot;&gt;지도 보기&lt;/font&gt;" style="ellipse;whiteSpace=wrap;html=1;" vertex="1" parent="1">
          <mxGeometry x="500" y="716" width="117.5" height="70" as="geometry" />
        </mxCell>
        <mxCell id="1IU3ckHuEVs75nmSolgR-24" value="&lt;font style=&quot;font-size: 22px;&quot;&gt;사진/리뷰/별점 보기&lt;/font&gt;" style="ellipse;whiteSpace=wrap;html=1;" vertex="1" parent="1">
          <mxGeometry x="720" y="716" width="210" height="70" as="geometry" />
        </mxCell>
        <mxCell id="1IU3ckHuEVs75nmSolgR-28" value="" style="endArrow=none;html=1;rounded=0;" edge="1" parent="1" source="1IU3ckHuEVs75nmSolgR-3">
          <mxGeometry width="50" height="50" relative="1" as="geometry">
            <mxPoint x="30" y="380" as="sourcePoint" />
            <mxPoint x="80" y="330" as="targetPoint" />
          </mxGeometry>
        </mxCell>
        <mxCell id="1IU3ckHuEVs75nmSolgR-29" value="" style="endArrow=none;html=1;rounded=0;entryX=0;entryY=0.5;entryDx=0;entryDy=0;" edge="1" parent="1" target="1IU3ckHuEVs75nmSolgR-12">
          <mxGeometry width="50" height="50" relative="1" as="geometry">
            <mxPoint x="-40" y="450" as="sourcePoint" />
            <mxPoint x="40" y="460" as="targetPoint" />
          </mxGeometry>
        </mxCell>
        <mxCell id="1IU3ckHuEVs75nmSolgR-31" value="" style="endArrow=none;html=1;rounded=0;entryX=0;entryY=0.5;entryDx=0;entryDy=0;" edge="1" parent="1" source="1IU3ckHuEVs75nmSolgR-4" target="1IU3ckHuEVs75nmSolgR-13">
          <mxGeometry width="50" height="50" relative="1" as="geometry">
            <mxPoint x="610" y="660" as="sourcePoint" />
            <mxPoint x="660" y="620" as="targetPoint" />
          </mxGeometry>
        </mxCell>
        <mxCell id="1IU3ckHuEVs75nmSolgR-33" value="" style="endArrow=classic;html=1;rounded=0;entryX=1;entryY=0.5;entryDx=0;entryDy=0;" edge="1" parent="1" target="1IU3ckHuEVs75nmSolgR-14">
          <mxGeometry width="50" height="50" relative="1" as="geometry">
            <mxPoint x="1120" y="520" as="sourcePoint" />
            <mxPoint x="660" y="610" as="targetPoint" />
          </mxGeometry>
        </mxCell>
        <mxCell id="1IU3ckHuEVs75nmSolgR-34" value="" style="endArrow=classic;html=1;rounded=0;entryX=0;entryY=0.5;entryDx=0;entryDy=0;" edge="1" parent="1" source="1IU3ckHuEVs75nmSolgR-11" target="1IU3ckHuEVs75nmSolgR-14">
          <mxGeometry width="50" height="50" relative="1" as="geometry">
            <mxPoint x="610" y="660" as="sourcePoint" />
            <mxPoint x="660" y="610" as="targetPoint" />
          </mxGeometry>
        </mxCell>
        <mxCell id="1IU3ckHuEVs75nmSolgR-35" value="" style="endArrow=classic;html=1;rounded=0;entryX=0;entryY=0.5;entryDx=0;entryDy=0;exitX=0.5;exitY=0;exitDx=0;exitDy=0;" edge="1" parent="1" source="1IU3ckHuEVs75nmSolgR-12" target="1IU3ckHuEVs75nmSolgR-14">
          <mxGeometry width="50" height="50" relative="1" as="geometry">
            <mxPoint x="610" y="660" as="sourcePoint" />
            <mxPoint x="660" y="610" as="targetPoint" />
          </mxGeometry>
        </mxCell>
        <mxCell id="1IU3ckHuEVs75nmSolgR-36" value="" style="endArrow=classic;html=1;rounded=0;entryX=1;entryY=0.5;entryDx=0;entryDy=0;exitX=0;exitY=0.5;exitDx=0;exitDy=0;" edge="1" parent="1" source="1IU3ckHuEVs75nmSolgR-18" target="1IU3ckHuEVs75nmSolgR-12">
          <mxGeometry width="50" height="50" relative="1" as="geometry">
            <mxPoint x="610" y="660" as="sourcePoint" />
            <mxPoint x="660" y="610" as="targetPoint" />
          </mxGeometry>
        </mxCell>
        <mxCell id="1IU3ckHuEVs75nmSolgR-37" value="" style="endArrow=classic;html=1;rounded=0;exitX=0.5;exitY=0;exitDx=0;exitDy=0;entryX=0.5;entryY=1;entryDx=0;entryDy=0;" edge="1" parent="1" source="1IU3ckHuEVs75nmSolgR-13" target="1IU3ckHuEVs75nmSolgR-18">
          <mxGeometry width="50" height="50" relative="1" as="geometry">
            <mxPoint x="610" y="660" as="sourcePoint" />
            <mxPoint x="484" y="324" as="targetPoint" />
            <Array as="points">
              <mxPoint x="168" y="570" />
              <mxPoint x="340" y="570" />
            </Array>
          </mxGeometry>
        </mxCell>
        <mxCell id="1IU3ckHuEVs75nmSolgR-39" value="" style="endArrow=classic;html=1;rounded=0;entryX=0.42;entryY=-0.029;entryDx=0;entryDy=0;entryPerimeter=0;" edge="1" parent="1" target="1IU3ckHuEVs75nmSolgR-19">
          <mxGeometry width="50" height="50" relative="1" as="geometry">
            <mxPoint x="340" y="570" as="sourcePoint" />
            <mxPoint x="660" y="610" as="targetPoint" />
          </mxGeometry>
        </mxCell>
        <mxCell id="1IU3ckHuEVs75nmSolgR-40" value="" style="endArrow=classic;html=1;rounded=0;entryX=1;entryY=0.5;entryDx=0;entryDy=0;exitX=0;exitY=0.5;exitDx=0;exitDy=0;" edge="1" parent="1" source="1IU3ckHuEVs75nmSolgR-20" target="1IU3ckHuEVs75nmSolgR-18">
          <mxGeometry width="50" height="50" relative="1" as="geometry">
            <mxPoint x="610" y="660" as="sourcePoint" />
            <mxPoint x="660" y="610" as="targetPoint" />
          </mxGeometry>
        </mxCell>
        <mxCell id="1IU3ckHuEVs75nmSolgR-41" value="" style="endArrow=classic;html=1;rounded=0;entryX=1;entryY=0.5;entryDx=0;entryDy=0;exitX=0;exitY=0.5;exitDx=0;exitDy=0;" edge="1" parent="1" source="1IU3ckHuEVs75nmSolgR-21" target="1IU3ckHuEVs75nmSolgR-18">
          <mxGeometry width="50" height="50" relative="1" as="geometry">
            <mxPoint x="610" y="660" as="sourcePoint" />
            <mxPoint x="660" y="610" as="targetPoint" />
          </mxGeometry>
        </mxCell>
        <mxCell id="1IU3ckHuEVs75nmSolgR-42" value="" style="endArrow=classic;html=1;rounded=0;exitX=0;exitY=0.5;exitDx=0;exitDy=0;" edge="1" parent="1" source="1IU3ckHuEVs75nmSolgR-22" target="1IU3ckHuEVs75nmSolgR-19">
          <mxGeometry width="50" height="50" relative="1" as="geometry">
            <mxPoint x="610" y="660" as="sourcePoint" />
            <mxPoint x="660" y="610" as="targetPoint" />
          </mxGeometry>
        </mxCell>
        <mxCell id="1IU3ckHuEVs75nmSolgR-44" value="" style="endArrow=classic;html=1;rounded=0;entryX=1;entryY=0.5;entryDx=0;entryDy=0;exitX=0;exitY=0.5;exitDx=0;exitDy=0;" edge="1" parent="1" source="1IU3ckHuEVs75nmSolgR-23" target="1IU3ckHuEVs75nmSolgR-19">
          <mxGeometry width="50" height="50" relative="1" as="geometry">
            <mxPoint x="610" y="660" as="sourcePoint" />
            <mxPoint x="660" y="610" as="targetPoint" />
          </mxGeometry>
        </mxCell>
        <mxCell id="1IU3ckHuEVs75nmSolgR-45" value="" style="endArrow=classic;html=1;rounded=0;entryX=1;entryY=0.5;entryDx=0;entryDy=0;" edge="1" parent="1" source="1IU3ckHuEVs75nmSolgR-24" target="1IU3ckHuEVs75nmSolgR-23">
          <mxGeometry width="50" height="50" relative="1" as="geometry">
            <mxPoint x="610" y="660" as="sourcePoint" />
            <mxPoint x="660" y="610" as="targetPoint" />
          </mxGeometry>
        </mxCell>
        <mxCell id="1IU3ckHuEVs75nmSolgR-46" value="" style="endArrow=classic;html=1;rounded=0;entryX=1;entryY=0.5;entryDx=0;entryDy=0;exitX=0;exitY=0.5;exitDx=0;exitDy=0;" edge="1" parent="1" source="1IU3ckHuEVs75nmSolgR-15" target="1IU3ckHuEVs75nmSolgR-14">
          <mxGeometry width="50" height="50" relative="1" as="geometry">
            <mxPoint x="610" y="660" as="sourcePoint" />
            <mxPoint x="660" y="610" as="targetPoint" />
          </mxGeometry>
        </mxCell>
        <mxCell id="1IU3ckHuEVs75nmSolgR-47" value="" style="endArrow=classic;html=1;rounded=0;exitX=0;exitY=0.5;exitDx=0;exitDy=0;" edge="1" parent="1" source="1IU3ckHuEVs75nmSolgR-16">
          <mxGeometry width="50" height="50" relative="1" as="geometry">
            <mxPoint x="610" y="660" as="sourcePoint" />
            <mxPoint x="620" y="320" as="targetPoint" />
          </mxGeometry>
        </mxCell>
        <mxCell id="1IU3ckHuEVs75nmSolgR-48" value="" style="endArrow=none;html=1;rounded=0;exitX=1;exitY=0.5;exitDx=0;exitDy=0;" edge="1" parent="1" source="1IU3ckHuEVs75nmSolgR-15" target="1IU3ckHuEVs75nmSolgR-7">
          <mxGeometry width="50" height="50" relative="1" as="geometry">
            <mxPoint x="610" y="660" as="sourcePoint" />
            <mxPoint x="660" y="610" as="targetPoint" />
          </mxGeometry>
        </mxCell>
        <mxCell id="1IU3ckHuEVs75nmSolgR-49" value="" style="endArrow=none;html=1;rounded=0;" edge="1" parent="1" source="1IU3ckHuEVs75nmSolgR-16">
          <mxGeometry width="50" height="50" relative="1" as="geometry">
            <mxPoint x="610" y="660" as="sourcePoint" />
            <mxPoint x="1120" y="580" as="targetPoint" />
          </mxGeometry>
        </mxCell>
      </root>
    </mxGraphModel>
  </diagram>
</mxfile>
